<svg width="270" height="99" viewBox="0 0 270 99" fill="none" xmlns="http://www.w3.org/2000/svg">
<g opacity="0.6">
<path fill-rule="evenodd" clip-rule="evenodd" d="M142.906 32.6135C139.705 33.0497 136.1 34.9366 133.65 37.4587C130.382 40.8228 128.71 45.1319 128.699 50.2194C128.692 53.4265 129.15 55.6439 130.336 58.1361C132.029 61.6973 134.772 64.1306 138.81 65.6561C141.316 66.6024 145.979 66.845 148.759 66.1737C153.588 65.0078 157.5 61.4351 159.318 56.5294L159.85 55.0952H155.138H150.426L149.747 55.8509C147.918 57.8863 144.158 58.5763 141.714 57.3253C139.262 56.0697 138.157 53.5192 138.34 49.536C138.473 46.6522 139.163 44.8063 140.705 43.2071C143.274 40.5432 147.985 40.4602 150.572 43.0334L151.729 44.1847H156.351C161.507 44.1847 161.236 44.3251 160.557 42.0118C159.675 39.0077 156.878 35.7853 153.845 34.2774C150.772 32.7502 146.58 32.1125 142.906 32.6135ZM28.3491 33.346C28.2852 33.5435 28.0432 34.9323 27.811 36.4325C27.5785 37.9327 27.1665 40.5452 26.895 42.2378L26.4012 45.3157L23.3248 45.3961L20.2481 45.4768L19.7644 48.4915C19.0008 53.2502 18.7473 52.7983 22.18 52.7983C25.5956 52.7983 25.3735 52.4747 24.7125 56.4898C24.4875 57.8547 24.1035 60.2634 23.859 61.8425C23.6142 63.4217 23.3545 65.0043 23.282 65.3598L23.1497 66.0058L35.1296 66.0023C44.2383 65.9997 47.445 65.907 48.51 65.615C53.4177 64.269 56.058 60.9292 56.0314 56.1002C56.0173 53.5712 55.0157 51.2137 53.3838 49.8694L52.2807 48.9609L53.1286 48.5957C54.7605 47.8923 55.9232 46.7157 56.8089 44.8715C57.6013 43.2214 57.6753 42.8465 57.5526 41.0996C57.2465 36.746 54.6135 34.048 49.9105 33.2687C47.2783 32.8329 28.493 32.9001 28.3491 33.346ZM64.7844 33.4895C64.702 33.766 64.3704 35.7362 64.0474 37.8681C63.7242 40 63.2872 42.8424 63.076 44.1847C62.8648 45.527 62.4349 48.3049 62.1206 50.3578C61.8063 52.4107 61.2254 56.1576 60.8296 58.6842C60.4338 61.2109 60.0349 63.8917 59.943 64.642L59.7761 66.0058H74.3755H88.9746L89.1225 65.3598C89.2037 65.0043 89.4975 63.2279 89.7754 61.4119L90.2804 58.11L80.2594 58.0348C72.4492 57.9759 70.263 57.8809 70.3504 57.6041C70.4117 57.4086 70.6075 56.3121 70.7856 55.167L71.1092 53.0854H76.3892C79.8989 53.0854 81.7327 52.9803 81.8582 52.7725C82.0126 52.5163 83.0887 46.0053 83.0999 45.2614C83.1016 45.1431 80.6919 45.0461 77.7449 45.0461H72.3867L72.5786 43.5387C72.6842 42.7098 72.8399 41.7408 72.9251 41.3853L73.08 40.7393H82.1212H91.1628L91.4748 38.9448C91.8283 36.9134 92.3412 33.5268 92.3443 33.2024C92.3457 33.0841 86.1786 32.9871 78.6401 32.9871C65.8303 32.9871 64.9241 33.0198 64.7844 33.4895ZM95.8579 33.346C95.7459 33.7029 94.5873 40.8119 94.5873 41.1412C94.5873 41.236 97.1814 41.3135 100.352 41.3135H106.116L105.953 42.1031C105.864 42.5372 105.351 45.7998 104.813 49.3529C104.275 52.906 103.71 56.5237 103.558 57.3922C103.406 58.2607 103.087 60.328 102.849 61.9861C102.611 63.6442 102.348 65.2268 102.264 65.5033C102.124 65.9682 102.466 66.0058 106.837 66.0058H111.561L112.206 61.7708C112.561 59.4414 113.085 56.0499 113.372 54.2339C114.064 49.8407 115.012 43.7273 115.207 42.3902L115.364 41.3135H121.063C126.246 41.3135 126.775 41.2682 126.913 40.8111C126.996 40.5346 127.259 39.0166 127.498 37.4374C127.737 35.8583 128.003 34.2111 128.088 33.7766L128.245 32.9871H112.107C99.4444 32.9871 95.9461 33.0643 95.8579 33.346ZM167.296 33.6331C167.225 33.9883 166.904 36.0234 166.582 38.1552C166.261 40.2871 165.183 47.2641 164.187 53.6596C163.191 60.0552 162.375 65.4496 162.374 65.6469C162.373 65.9196 163.482 66.0058 166.989 66.0058C171.552 66.0058 171.607 65.9983 171.734 65.3598C172.09 63.5727 176.658 33.946 176.658 33.4278C176.658 33.0494 176.006 32.9871 172.042 32.9871C167.48 32.9871 167.424 32.9945 167.296 33.6331ZM181.016 33.346C180.957 33.5435 180.707 35.1261 180.459 36.8632C180.211 38.6002 179.933 40.3121 179.841 40.6675L179.674 41.3135H185.449C188.625 41.3135 191.224 41.4266 191.224 41.5648C191.224 41.7029 190.978 43.3501 190.678 45.2255C189.492 52.6252 187.878 63.0697 187.699 64.4984L187.51 66.0058H192.133H196.756L196.897 65.2162C196.975 64.7821 197.84 59.2286 198.819 52.8758L200.599 41.3247L206.345 41.2475L212.092 41.17L212.701 37.581C213.036 35.607 213.319 33.766 213.331 33.4895C213.351 33.0166 212.406 32.9871 197.237 32.9871C184.589 32.9871 181.099 33.0643 181.016 33.346ZM214.23 33.6331C214.7 34.5332 221.765 46.3416 223.772 49.5817C224.764 51.1815 225.368 52.4469 225.281 52.74C225.142 53.2077 224.249 58.9136 223.7 62.8475C223.557 63.8739 223.373 65.0043 223.292 65.3598L223.145 66.0058H228.192C230.968 66.0058 233.24 65.8958 233.24 65.7614C233.24 65.6271 233.689 62.5612 234.239 58.9484C235.233 52.4147 235.244 52.3731 236.27 51.0856C237.286 49.8108 242.876 42.9952 247.898 36.9085C249.31 35.1967 250.567 33.6138 250.69 33.3913C250.88 33.0497 250.05 32.9871 245.322 32.9871H239.73L237.408 35.7865C236.131 37.326 234.575 39.1673 233.95 39.8779C233.325 40.5885 232.426 41.6578 231.953 42.2538L231.093 43.3374L228.069 38.1624L225.046 32.9871H219.469H213.893L214.23 33.6331ZM45.94 40.7206C47.9273 41.1935 48.4343 43.0144 46.9909 44.4939L46.1722 45.3332H40.8611H35.55L35.936 43.2516C36.1481 42.1065 36.3817 41.0086 36.4548 40.8111C36.6139 40.3818 44.2117 40.3098 45.94 40.7206ZM44.4521 53.113C45.6683 53.3803 45.9509 53.5724 46.3313 54.3898C46.905 55.6227 46.5702 56.9561 45.4767 57.7936C44.7487 58.3515 44.2641 58.4043 39.081 58.4907C33.7596 58.5797 33.4806 58.5576 33.6237 58.06C33.7067 57.7718 33.9218 56.4697 34.1019 55.167L34.429 52.7983H38.7247C41.0872 52.7983 43.6647 52.9398 44.4521 53.113Z" fill="white"/>
</g>
</svg>
