<svg width="270" height="99" viewBox="0 0 270 99" fill="none" xmlns="http://www.w3.org/2000/svg">
<g opacity="0.6">
<path fill-rule="evenodd" clip-rule="evenodd" d="M157.972 15.1322C147.436 16.469 138.763 23.6282 135.939 33.3187C135.672 34.2323 135.381 35.4998 135.29 36.1353C134.963 38.4399 134.968 38.4286 134.758 37.2444C134.348 34.9282 133.192 32.2946 131.756 30.4018C130.71 29.0245 128.48 27.0049 127.014 26.1065C125.532 25.199 123.862 24.5058 121.843 23.9606L120.418 23.5759L109.969 23.53L99.5194 23.484L99.6216 24.6098C99.8516 27.1433 100.565 29.4519 101.75 31.495C104.424 36.1053 108.985 39.1022 114.635 39.9607C115.241 40.0527 124.367 40.1057 139.773 40.1063C166.234 40.1076 165.493 40.1291 168.974 39.258C178.266 36.9324 185.531 29.8286 187.825 20.8246C188.151 19.5425 188.571 16.6128 188.571 15.6173V14.9747L173.747 14.9931C165.594 15.0032 158.495 15.0657 157.972 15.1322ZM179.494 22.1429C179.494 22.3847 178.202 24.4977 177.449 25.4873C175.153 28.5037 172.004 30.7322 168.316 31.9489C165.37 32.9208 165.409 32.9181 154.202 32.9846C148.132 33.0208 144.063 32.992 144.063 32.913C144.063 32.7066 145.106 30.8882 145.812 29.8627C146.734 28.524 148.9 26.4487 150.475 25.3943C152.799 23.8385 155.763 22.6825 158.265 22.3561C158.949 22.2668 159.674 22.1708 159.875 22.1428C160.539 22.0502 179.494 22.0503 179.494 22.1429ZM83.5552 34.3376C83.2505 34.4114 82.8133 34.5676 82.5836 34.6849C81.9705 34.9976 81.0383 36.106 80.8405 36.7574C80.7282 37.1271 80.6683 38.5939 80.6683 40.9717C80.6683 44.3787 80.6515 44.6137 80.4121 44.5406C80.2711 44.4976 79.6786 44.2929 79.0954 44.0858C74.1872 42.3428 68.4662 43.7043 64.7666 47.4958C63.288 49.011 62.2495 50.7724 61.6034 52.8609C61.293 53.8646 61.2796 54.1688 61.2267 61.4125C61.1869 66.8516 61.2206 69.2 61.3487 69.9264C62.2293 74.9208 65.8941 78.8179 71.0939 80.2898C72.0757 80.5677 72.6025 80.6174 74.5923 80.62C76.5897 80.6227 77.1169 80.5741 78.1695 80.2904C82.41 79.1471 85.7712 76.2398 87.2624 72.4251C88.1667 70.1116 88.1439 70.6429 88.101 52.8902C88.0644 37.7404 88.0455 36.6835 87.8032 36.2461C86.9961 34.789 85.1384 33.9544 83.5552 34.3376ZM184.984 34.2784C184.061 34.4998 183.624 34.7181 183.035 35.2516C181.742 36.4229 181.843 34.9059 181.84 53.0583C181.837 66.321 181.872 69.3007 182.044 70.1841C182.82 74.185 185.67 77.733 189.505 79.4704C191.559 80.4013 192.628 80.6156 195.233 80.6195C197.986 80.6237 199.212 80.3665 201.382 79.329C204.753 77.7173 207.029 75.1187 208.283 71.4512L208.702 70.2234V62.1347C208.702 54.1078 208.7 54.0372 208.363 52.8905C208.177 52.255 207.683 51.085 207.265 50.2906C206.617 49.056 206.283 48.6253 204.969 47.326C203.71 46.0813 203.18 45.6721 202.041 45.0661C199.709 43.8258 197.876 43.3718 195.233 43.3798C193.368 43.3854 191.672 43.6955 190.279 44.2854C189.89 44.4502 189.511 44.5851 189.438 44.5851C189.36 44.5851 189.303 43.06 189.303 40.9548C189.303 38.5679 189.244 37.1281 189.129 36.7512C188.904 36.0097 187.849 34.856 187.139 34.5761C186.504 34.3253 185.416 34.175 184.984 34.2784ZM204.692 34.397C203.776 34.6867 202.958 35.5275 202.682 36.4621C202.312 37.7177 202.778 38.93 203.916 39.6739C206.451 41.3303 209.702 38.8198 208.549 36.0966C207.945 34.6694 206.225 33.912 204.692 34.397ZM206.731 35.2326C207.906 35.8179 208.341 37.0879 207.755 38.2218C206.996 39.689 205.294 39.9645 204.052 38.8212C203.527 38.3385 203.452 38.1855 203.393 37.4822C203.296 36.325 203.848 35.4432 204.896 35.0818C205.583 34.845 206.026 34.8814 206.731 35.2326ZM204.481 35.5817C204.427 35.6346 204.383 36.4145 204.383 37.315C204.383 38.8556 204.401 38.9519 204.676 38.9519C204.93 38.9519 204.969 38.8556 204.969 38.2297C204.969 37.2604 205.315 37.2613 205.958 38.2323C206.266 38.6973 206.539 38.9519 206.727 38.9519C207.107 38.9519 207.095 38.8412 206.642 38.1837L206.266 37.6374L206.642 37.3453C207.026 37.0478 207.153 36.3507 206.896 35.9522C206.666 35.5947 204.764 35.3028 204.481 35.5817ZM206.209 36.2588C206.677 36.5964 206.391 36.9298 205.632 36.9298C204.993 36.9298 204.969 36.9142 204.969 36.4964C204.969 36.1023 205.013 36.0631 205.453 36.0631C205.72 36.0631 206.06 36.1512 206.209 36.2588ZM103.197 43.4277C97.7644 44.094 93.3168 47.7604 91.774 52.8441C91.4855 53.7948 91.4473 54.3027 91.3958 57.8737L91.3385 61.8458L91.7499 62.6393C92.2078 63.5224 93.0959 64.275 93.9585 64.5113C94.3105 64.6078 98.1644 64.6608 104.826 64.6608C111.487 64.6608 115.341 64.6078 115.693 64.5113C116.554 64.2753 117.444 63.5222 117.893 62.6495L118.295 61.8662V58.3473C118.295 54.3674 118.151 53.327 117.346 51.4722C116.619 49.7999 116.004 48.8646 114.788 47.5826C113.595 46.3244 112.054 45.2213 110.553 44.5495C108.489 43.6266 105.408 43.1566 103.197 43.4277ZM132.863 43.5036C129.847 43.9809 127.558 45.1301 125.385 47.2573C123.846 48.7638 123.172 49.7558 122.375 51.6859C121.516 53.7697 121.516 53.7639 121.518 66.3535L121.519 77.8788L121.865 78.601C122.51 79.9473 123.713 80.689 125.25 80.689C126.706 80.689 127.915 79.9863 128.594 78.7454C128.908 78.1706 128.91 78.1097 128.983 66.5402L129.056 54.9127L129.52 53.9478C130.168 52.5968 131.001 51.76 132.338 51.1149C133.404 50.6008 133.51 50.5794 134.986 50.5794C136.408 50.5794 136.596 50.6137 137.501 51.0366C138.862 51.6726 139.71 52.4915 140.369 53.806L140.915 54.8972L140.989 66.5325C141.069 79.3359 141 78.4108 141.966 79.5432C142.917 80.6591 144.882 81.0225 146.341 80.3525C147.233 79.9426 148.066 79.0257 148.298 78.1977C148.424 77.7515 148.457 74.4399 148.422 65.7457C148.376 53.9885 148.373 53.8939 148.051 52.8609C146.631 48.3104 143.071 44.9496 138.445 43.7917C136.641 43.3403 134.569 43.2335 132.863 43.5036ZM163.517 43.4277C157.695 44.1417 153.081 48.25 151.895 53.7761C151.742 54.4882 151.681 55.7702 151.679 58.3173L151.676 61.8662L152.079 62.6495C152.528 63.5222 153.417 64.2753 154.279 64.5113C154.631 64.6078 158.485 64.6608 165.146 64.6608C171.807 64.6608 175.661 64.6078 176.013 64.5113C176.876 64.275 177.764 63.5224 178.222 62.6393L178.633 61.8458L178.576 57.8737C178.524 54.2777 178.488 53.799 178.191 52.8183C177.145 49.3614 174.496 46.2887 171.203 44.7134C169.002 43.6604 165.879 43.138 163.517 43.4277ZM77.3305 51.1318C78.6492 51.7575 79.4821 52.5948 80.1317 53.9478L80.5951 54.9127L80.6427 61.557C80.6763 66.274 80.6402 68.4316 80.5176 68.9957C80.0197 71.2888 78.0979 73.0578 75.6474 73.4787C72.5532 74.0104 69.4621 71.9826 68.8135 68.9957C68.6909 68.4316 68.6548 66.274 68.6884 61.557L68.736 54.9127L69.1994 53.9478C69.7877 52.7227 70.6253 51.8258 71.7178 51.2514C72.8839 50.6382 73.4944 50.5097 74.9756 50.5656C76.0674 50.6067 76.385 50.6831 77.3305 51.1318ZM107.369 51.0763C107.911 51.3314 108.593 51.7465 108.884 51.9987C110.126 53.0729 110.881 54.8911 110.799 56.6046L110.755 57.5126H104.826H98.8961L98.8524 56.6046C98.7393 54.2559 99.9763 52.1842 102.106 51.1565C103.265 50.5971 103.7 50.512 105.129 50.5654C106.181 50.6049 106.544 50.6878 107.369 51.0763ZM167.811 51.1318C169.828 52.089 171.002 53.8556 171.122 56.1137C171.172 57.0427 171.14 57.3573 170.985 57.4541C170.874 57.5236 168.246 57.5803 165.146 57.5803C162.046 57.5803 159.418 57.5236 159.307 57.4541C159.152 57.3573 159.12 57.0427 159.169 56.1137C159.221 55.1413 159.325 54.707 159.693 53.9325C160.443 52.3513 161.992 51.0668 163.645 50.6548C163.947 50.5796 164.762 50.5394 165.456 50.5656C166.548 50.6067 166.865 50.6831 167.811 51.1318ZM197.99 51.1312C199.261 51.7509 200.195 52.678 200.826 53.9461L201.236 54.7682V61.9903V69.2123L200.784 70.1516C199.954 71.8794 198.288 73.1232 196.334 73.4728C193.404 73.9969 190.445 72.2202 189.583 69.419C189.304 68.5141 189.292 68.1253 189.333 61.6894L189.377 54.9127L189.844 53.939C190.608 52.3471 192.157 51.0633 193.805 50.656C194.107 50.5812 194.925 50.5368 195.622 50.5575C196.749 50.5908 197.013 50.6547 197.99 51.1312ZM94.6491 68.0997C93.1317 68.6174 92.2447 69.7145 92.1209 71.2267C92.0441 72.1661 92.4444 73.2338 93.4339 74.7295C98.0682 81.7332 108.472 82.7607 114.504 76.8104C115.629 75.7 116.826 73.9611 117.276 72.781C117.875 71.2101 117.384 69.5223 116.069 68.6276C114.005 67.2245 111.627 67.8461 110.323 70.1292C109.204 72.0881 107.785 73.1391 105.797 73.4806C103.175 73.9311 100.644 72.5921 99.2572 70.0206C98.6875 68.9648 97.9768 68.3799 96.8691 68.0554C95.9366 67.7822 95.5577 67.7897 94.6491 68.0997ZM155.263 67.9674C154.517 68.1598 153.955 68.5135 153.327 69.1862C151.993 70.6134 152.115 72.2519 153.735 74.7008C155.674 77.6314 158.803 79.7122 162.363 80.4391C164.168 80.8078 166.975 80.735 168.733 80.2739C170.233 79.8803 172.264 78.8928 173.545 77.9334C175.6 76.3942 177.688 73.4121 177.846 71.7881C177.945 70.7646 177.665 69.9353 176.966 69.187C176.082 68.241 175.389 67.9308 174.146 67.9251C172.804 67.919 171.735 68.4612 171.075 69.4826C169.752 71.5326 169.409 71.9661 168.767 72.4027C167.597 73.1979 166.56 73.5171 165.146 73.5171C163.731 73.5171 162.694 73.1979 161.525 72.4027C160.88 71.9644 160.462 71.4341 159.216 69.4709C158.482 68.3136 156.639 67.6125 155.263 67.9674Z" fill="white"/>
</g>
</svg>
