<svg width="270" height="99" viewBox="0 0 270 99" fill="none" xmlns="http://www.w3.org/2000/svg">
<g opacity="0.4">
<path fill-rule="evenodd" clip-rule="evenodd" d="M24.7575 33.3218V40.0218L23.4303 38.7705C21.1581 36.6284 18.8754 35.8195 15.1595 35.8396C12.5302 35.8538 10.8404 36.2502 8.5216 37.3968C3.25633 40.0002 0 45.5789 0 51.9958C0 58.4126 3.25633 63.9913 8.5216 66.5948C10.8404 67.7413 12.5302 68.1377 15.1595 68.152C18.8754 68.1721 21.1581 67.3631 23.4303 65.221L24.7575 63.9698V65.684V67.3982H28.7043H32.6512V47.01V26.6218H28.7043H24.7575V33.3218ZM142.983 31.6076V36.5933H140.382H137.781V39.4423V42.2914H140.375H142.969L143.021 51.9513C143.073 61.5423 143.076 61.6183 143.483 62.6178C144.28 64.5745 145.843 66.1235 147.8 66.8954C148.73 67.2623 149.167 67.301 153.075 67.361L157.336 67.4265V64.0291V60.6318L154.958 60.6311C152.251 60.6304 151.707 60.4434 151.175 59.3313C150.904 58.7645 150.878 57.8747 150.92 50.5406L150.967 42.3804L153.882 42.3314L156.797 42.2824V39.4379V36.5933H153.837H150.877V31.6076V26.6218H146.93H142.983V31.6076ZM49.7841 35.8943C42.8708 36.8054 37.192 42.0232 35.805 48.7387C35.4421 50.4961 35.4421 53.4954 35.805 55.2529C37.0878 61.463 41.9469 66.3327 48.396 67.8708C50.3314 68.3323 53.6726 68.252 55.8421 67.6917C57.8078 67.184 60.0679 66.1311 61.5069 65.0528C63.6308 63.4611 65.671 60.9717 66.6477 58.7796L67.0919 57.7828H62.8781C60.3584 57.7828 58.6645 57.8503 58.6645 57.9507C58.6645 58.0431 58.2238 58.591 57.6853 59.1683C55.9697 61.0077 53.8588 61.8218 51.2397 61.6543C47.4836 61.4141 45.0191 59.2333 43.6951 54.9783L43.5705 54.5777H55.5129H67.4551L67.4544 52.7525C67.451 44.1062 62.7632 37.6261 55.4383 36.142C53.7989 35.8097 51.2665 35.6988 49.7841 35.8943ZM85.9336 35.8672C83.3076 36.2347 81.2641 37.1831 79.5451 38.8314L78.3987 39.9308V38.2621V36.5933H74.4518H70.505V56.9815V77.3697H74.4518H78.3987V70.7152V64.0608L79.5451 65.1601C81.7164 67.2421 84.2472 68.1722 87.7276 68.1674C93.873 68.1589 98.9117 64.942 101.527 59.3576C102.692 56.871 103.059 55.108 103.059 51.9958C103.059 49.7768 102.988 49.0536 102.641 47.7223C101.366 42.8296 98.1316 38.8809 93.8674 37.0091C91.7569 36.0828 88.1258 35.5602 85.9336 35.8672ZM119.841 35.8781C118.072 36.0989 116.497 36.5504 114.876 37.3022C113 38.1717 111.977 38.8693 110.447 40.3218C107.147 43.4536 105.432 47.4461 105.432 51.9958C105.432 56.5455 107.147 60.538 110.447 63.6698C111.979 65.1242 112.998 65.8181 114.898 66.7018C119.158 68.6833 124.29 68.6833 128.55 66.7018C132.822 64.715 135.881 61.2497 137.297 56.7926C139.431 50.0773 136.795 42.5957 130.87 38.5495C127.907 36.5262 123.398 35.4342 119.841 35.8781ZM262.42 36.5973C260.258 37.1393 258.403 38.8595 257.778 40.9019C257.024 43.3636 257.708 46.1706 259.44 47.7235C261.649 49.7039 265.189 49.9785 267.46 48.3455C268.832 47.3587 270 45.0287 270 43.2764V42.4694H266.591H263.183V43.5378V44.6062H265.246C266.381 44.6062 267.309 44.6592 267.309 44.724C267.309 44.7889 267.104 45.1897 266.853 45.6147C266.259 46.6211 265.328 47.099 263.964 47.099C261.482 47.099 259.748 45.0711 260.034 42.5008C260.407 39.1402 263.826 37.6161 266.446 39.6425C267.033 40.0962 267.253 40.1546 268.375 40.1546C269.071 40.1546 269.641 40.0866 269.641 40.0032C269.641 39.7306 268.641 38.4758 267.932 37.8587C267.55 37.5262 266.884 37.0989 266.451 36.9089C265.544 36.5105 263.42 36.3464 262.42 36.5973ZM172.047 43.0168V49.262L175.679 49.2045C179.076 49.1505 179.368 49.1194 180.176 48.7246C181.243 48.203 181.887 47.2864 182.03 46.0834C182.157 45.0237 181.894 44.1176 181.266 43.4448L180.815 42.9612L181.176 42.5793C182.765 40.9012 182.176 38.091 180.03 37.1079C179.408 36.823 178.827 36.7787 175.679 36.7753L172.047 36.7714V43.0168ZM184.425 43.0036V49.2358H185.681H186.937V46.832V44.4281H187.899H188.86L190.704 46.832L192.548 49.2358H194.048C194.873 49.2358 195.547 49.1756 195.546 49.1023C195.545 49.0289 194.744 47.9327 193.768 46.6667L191.992 44.3647L192.835 43.9767C194.869 43.0417 195.592 40.7675 194.51 38.7121C194.106 37.9438 193.829 37.6685 193.055 37.2671L192.099 36.7714H188.262H184.425V43.0036ZM201.323 37.0754C201.01 37.676 196.086 49.0132 196.086 49.1323C196.086 49.1979 196.662 49.2278 197.366 49.1991L198.646 49.1468L199.238 47.8113L199.83 46.4758L202.636 46.4267L205.441 46.3775L206.095 47.8067L206.749 49.2358H208.068C209.25 49.2358 209.376 49.203 209.285 48.9194C209.229 48.7452 208.025 45.9609 206.608 42.7317L204.033 36.8604L202.761 36.8083C201.687 36.7643 201.463 36.8058 201.323 37.0754ZM210.797 43.0036V49.2358H212.05H213.303L213.351 44.9424L213.399 40.6491L216.449 44.9395L219.498 49.2299L220.889 49.2328L222.279 49.2358V43.0036V36.7714H221.023H219.767V40.9664C219.767 43.5025 219.702 45.1209 219.601 45.0592C219.509 45.0031 218.123 43.1152 216.521 40.8642L213.607 36.7714H212.202H210.797V43.0036ZM225.15 43.0097V49.2762L228.244 49.1961C232.062 49.0973 232.911 48.8391 234.488 47.2969C235.891 45.9253 236.334 44.7436 236.236 42.6331C236.117 40.0752 235 38.3975 232.706 37.3296C231.752 36.8855 231.522 36.8572 228.424 36.8019L225.15 36.7431V43.0097ZM238.425 43.0036V49.2358H239.681H240.937V43.0036V36.7714H239.681H238.425V43.0036ZM243.807 43.0036V49.2358H245.06H246.312L246.361 44.9196L246.409 40.6031L249.463 44.875L252.517 49.1468L253.903 49.1988L255.289 49.2508V43.0111V36.7714H254.033H252.777V41.0679V45.3644L249.714 41.0679L246.651 36.7714H245.229H243.807V43.0036ZM179.168 39.5194C179.516 39.921 179.59 40.156 179.505 40.5843C179.309 41.5634 178.845 41.7488 176.576 41.7532L174.558 41.7572V40.4514C174.558 39.7331 174.619 39.0844 174.693 39.0098C174.767 38.935 175.703 38.9034 176.774 38.9391C178.664 39.0022 178.735 39.0193 179.168 39.5194ZM191.731 39.2641C192.619 39.8378 192.667 41.1035 191.826 41.76C191.43 42.0691 191.096 42.1133 189.155 42.1133H186.937V40.4924V38.8715L189.135 38.9391C190.649 38.9856 191.456 39.0868 191.731 39.2641ZM231.443 39.3911C232.99 40.0702 233.868 41.5547 233.724 43.2461C233.516 45.6662 231.948 46.8969 229.051 46.9132L227.661 46.921V42.8895V38.8579L229.156 38.9505C230.064 39.0068 230.962 39.1795 231.443 39.3911ZM203.637 42.2545L204.474 44.161L202.768 44.2123C201.831 44.2404 201.027 44.2276 200.983 44.1836C200.939 44.1398 201.292 43.223 201.769 42.1462C202.245 41.0695 202.672 40.2244 202.717 40.2682C202.762 40.3122 203.176 41.2061 203.637 42.2545ZM18.3887 42.5333C21.142 43.2634 23.1744 45.288 24.1798 48.302C24.5774 49.4942 24.6401 49.9945 24.6434 51.9958C24.6466 54.0656 24.5946 54.4614 24.1518 55.7351C23.5501 57.4664 22.8684 58.5576 21.7258 59.6185C18.6512 62.4728 13.643 62.4053 10.6807 59.4694C6.35765 55.1849 7.20299 46.2196 12.2042 43.3106C13.8387 42.3599 16.4815 42.0278 18.3887 42.5333ZM53.9103 42.5333C56.5082 43.2223 58.5071 45.1161 59.5347 47.8626C59.7468 48.4294 59.9203 48.9301 59.9203 48.9755C59.9203 49.0207 56.2786 49.0577 51.8278 49.0577H43.7352L43.85 48.5681C43.9129 48.2987 44.2572 47.4813 44.6148 46.7515C45.6555 44.6268 47.3998 43.1421 49.5193 42.5768C50.7627 42.2452 52.749 42.2255 53.9103 42.5333ZM88.9206 42.5398C91.648 43.2605 93.6703 45.2719 94.6677 48.2565C95.0848 49.5043 95.1439 49.968 95.1442 51.9958C95.1446 54.0036 95.0838 54.4935 94.6848 55.6895C93.4213 59.478 90.5133 61.7007 86.8306 61.6938C83.5947 61.6876 81.0013 60.0862 79.5781 57.2157C77.075 52.1674 78.748 45.2734 82.9815 43.1893C84.8008 42.2937 87.0561 42.0471 88.9206 42.5398ZM123.884 42.5659C126.76 43.3047 128.947 45.6719 129.793 48.9616C130.204 50.5567 130.156 53.6421 129.695 55.293C128.574 59.3077 125.598 61.7002 121.724 61.7002C116.763 61.7002 113.33 57.731 113.33 51.9958C113.33 49.9411 113.663 48.4368 114.494 46.7429C115.141 45.4222 116.69 43.7776 117.831 43.2002C119.595 42.3067 121.924 42.0625 123.884 42.5659ZM178.679 44.2997C179.39 44.6571 179.691 45.3382 179.422 45.9831C179.102 46.749 178.554 46.921 176.433 46.921H174.558V45.4965V44.072L176.397 44.0747C177.507 44.0763 178.412 44.1655 178.679 44.2997ZM189.256 54.8097C187.397 55.3334 186.005 56.5225 185.161 58.3088C184.756 59.1667 184.694 59.5307 184.694 61.0807C184.694 62.7351 184.737 62.9509 185.279 64.044C186.322 66.1464 188.219 67.3849 190.631 67.5385C192.595 67.6635 193.742 67.2433 195.123 65.8922C196.375 64.6662 196.932 63.4559 197.109 61.5743L197.215 60.4457L193.825 60.4942L190.435 60.5428L190.382 61.6557L190.328 62.7686H192.383C194.739 62.7686 194.796 62.8327 193.644 64.169C192.898 65.0339 192.08 65.3257 190.684 65.2255C186.768 64.9443 185.761 59.1062 189.325 57.3435C190.479 56.7727 191.722 56.7465 192.813 57.2704C193.245 57.4782 193.694 57.7987 193.809 57.9826C193.986 58.2632 194.244 58.317 195.416 58.317H196.811L196.464 57.6413C196.007 56.7533 194.65 55.5264 193.628 55.0777C192.601 54.6267 190.388 54.491 189.256 54.8097ZM228.608 54.9383C227.784 55.2052 227.215 55.5536 226.437 56.2686C222.2 60.1626 224.583 67.1756 230.267 67.5376C232.575 67.6847 234.674 66.739 235.857 65.0195C236.184 64.5435 236.452 64.0829 236.452 63.9956C236.452 63.9084 235.859 63.837 235.134 63.837C234.013 63.837 233.765 63.8939 233.475 64.2182C232.573 65.2237 230.409 65.57 229.117 64.9158C227.703 64.1997 226.876 62.7834 226.876 61.077C226.876 57.486 230.652 55.5971 233.338 57.8448C233.833 58.2588 234.059 58.317 235.177 58.317C235.878 58.317 236.451 58.2568 236.451 58.1835C236.45 57.9094 235.744 56.9142 235.093 56.2679C233.557 54.7435 230.894 54.1975 228.608 54.9383ZM176.079 54.94C175.706 55.539 170.674 67.223 170.755 67.3029C170.956 67.5029 173.082 67.3945 173.251 67.1756C173.346 67.0533 173.657 66.4103 173.943 65.7469L174.462 64.5408L177.303 64.5894L180.143 64.6382L180.724 65.9737L181.304 67.3092L182.596 67.3615C183.56 67.4005 183.887 67.3555 183.886 67.1835C183.886 67.0567 182.69 64.2287 181.229 60.8989L178.573 54.8448L177.388 54.7924C176.652 54.76 176.157 54.8158 176.079 54.94ZM199.316 61.077V67.4044L203.756 67.3567L208.196 67.3092L208.249 66.1963L208.303 65.0834H205.065H201.827V63.6589V62.2344H204.967H208.106V61.077V59.9196H204.967H201.827V58.4951V57.0706H205.065H208.303L208.249 55.9577L208.196 54.8448L203.756 54.7972L199.316 54.7495V61.077ZM210.7 54.9796C210.652 55.1026 210.634 57.927 210.66 61.2563L210.708 67.3092H211.963H213.219L213.309 63.1284L213.399 58.9477L216.378 63.1284L219.357 67.3092L220.729 67.3612L222.1 67.4132V61.0845V54.7558H220.847H219.594L219.546 59.0492L219.498 63.3425L216.449 59.0521L213.399 54.7616L212.092 54.7588C211.207 54.7566 210.758 54.8279 210.7 54.9796ZM237.169 54.8626C237.169 54.9297 238.259 56.7661 239.591 58.9434L242.013 62.9023V65.1503V67.3982H243.269H244.525L244.526 65.2169L244.526 63.0357L246.947 59.0293C248.278 56.8257 249.368 54.9627 249.368 54.8893C249.368 54.8159 248.775 54.7558 248.05 54.7558H246.73L245.056 57.518C244.135 59.0373 243.315 60.2144 243.234 60.1338C243.152 60.0531 242.375 58.8302 241.506 57.416L239.926 54.8448L238.548 54.7928C237.79 54.7641 237.169 54.7956 237.169 54.8626ZM177.966 59.7415C178.284 60.476 178.657 61.3375 178.796 61.6557L179.048 62.2344H177.262H175.476L176.109 60.8544C176.458 60.0955 176.858 59.2016 176.999 58.8683C177.139 58.5351 177.284 58.2947 177.321 58.3341C177.358 58.3736 177.648 59.007 177.966 59.7415Z" fill="white"/>
</g>
</svg>
