<svg width="270" height="99" viewBox="0 0 270 99" fill="none" xmlns="http://www.w3.org/2000/svg">
<g opacity="0.6">
<path fill-rule="evenodd" clip-rule="evenodd" d="M135.307 18.5527C124.348 19.5705 115.119 21.5379 106.485 24.6967C94.8699 28.946 85.5344 34.6133 77.6825 42.1813L75.1861 44.5874L74.7351 43.9624C73.727 42.5649 70.7826 39.8016 69.1957 38.7639C65.9576 36.6465 62.0211 35.044 58.3685 34.3564C55.7238 33.8587 52.1356 33.8985 49.8147 34.4517C48.0816 34.8646 46.4364 35.5198 46.2049 35.8892C46.0074 36.2046 47.497 38.9839 48.7575 40.6521C50.0054 42.3034 52.0283 44.1953 53.9141 45.4752C55.0523 46.2475 58.8442 48.1467 59.6434 48.3444C60.3683 48.524 60.3797 48.7734 59.6711 48.9488C58.6503 49.2016 55.2205 50.9181 53.5989 51.9879C51.7112 53.2334 49.4679 55.3362 48.1963 57.0521C47.1409 58.4763 45.9775 60.8286 46.1321 61.2262C46.2717 61.5851 47.7694 62.276 49.3568 62.7137C51.2755 63.2427 55.6663 63.3539 58.1064 62.9354C64.933 61.7643 72.3179 57.4652 74.8583 53.1832C75.1128 52.7542 75.4087 52.4027 75.5158 52.4019C75.6231 52.4008 76.9063 53.5525 78.3673 54.9607C81.4929 57.9735 83.6936 59.8128 87.109 62.2668C95.9926 68.6498 107.381 73.9054 118.727 76.8582C136.227 81.4127 156.146 81.9367 174.066 78.3139C186.646 75.7706 198.557 70.929 208.488 64.3217C212.263 61.8101 214.456 60.0984 218.375 56.6031C219.951 55.197 223.707 51.1827 223.877 50.7227C224.031 50.3066 220.693 46.2979 217.899 43.542C207.878 33.6593 194.634 26.4178 178.713 22.1172C173.539 20.7197 166.973 19.5555 159.598 18.7284C155.408 18.2584 139.7 18.1448 135.307 18.5527ZM115.341 27.896C115.757 28.0279 116.19 28.3537 116.341 28.6494C116.62 29.1938 116.705 31.5251 116.476 32.3676C116.35 32.8324 116.284 32.8491 115.159 32.7014C111.849 32.267 111.148 32.9181 111.065 36.5042L111.017 38.5455L114.185 38.6497L117.354 38.7539V40.3521C117.354 41.7675 117.293 42.0148 116.826 42.5144C115.994 43.403 115.146 43.6499 112.925 43.6499H110.911V52.7127C110.911 63.5827 111.212 62.6089 107.859 62.6089C106.633 62.6089 105.412 62.5014 105.113 62.367L104.575 62.1254V52.8875V43.6499L103.466 43.6253C102.856 43.6116 102.276 43.6149 102.177 43.6324C102.078 43.6499 101.819 43.6089 101.603 43.5409C100.59 43.2241 100.485 39.2243 101.473 38.6051C101.611 38.5185 102.365 38.4464 103.149 38.4445L104.575 38.4414L104.576 37.2434C104.579 35.3123 105.119 32.3112 105.659 31.2278C106.3 29.9415 107.536 28.7164 108.708 28.205C110.459 27.4408 113.464 27.3008 115.341 27.896ZM125.218 27.825C125.85 28.2204 126.333 29.4771 126.319 30.6848C126.29 33.0701 125.401 33.8579 122.74 33.8579C119.926 33.8579 119.002 32.9012 119.208 30.2007C119.384 27.9135 120.162 27.3431 122.951 27.4564C124.017 27.4999 124.938 27.6495 125.218 27.825ZM191.1 37.7251C193.294 38.172 194.786 38.9191 196.232 40.2954C198.237 42.2036 199.135 44.5833 199.348 48.5551C199.669 54.5397 197.406 59.1442 193.204 61.0547C191.024 62.0458 189.542 62.2708 186.038 62.1435L183.043 62.0345L182.635 62.8946C182.398 63.3923 181.215 64.7355 179.828 66.0818C178.51 67.3616 177.505 68.4452 177.597 68.4896C177.688 68.5341 179.046 68.596 180.614 68.6273C182.183 68.6583 183.544 68.7587 183.641 68.8504C183.946 69.1404 184.051 70.6561 183.799 71.1209C183.561 71.5594 183.46 71.5676 178.22 71.5676C174.351 71.5676 172.814 71.4988 172.63 71.3176C172.49 71.1796 172.377 70.5167 172.377 69.8392V68.6108L174.991 65.9745C176.428 64.5244 177.774 63.01 177.981 62.6089C178.498 61.6078 178.504 60.2697 177.994 59.714C177.413 59.0811 175.784 59.1211 174.295 59.8051C172.897 60.4468 172.693 60.3095 172.693 58.7261C172.693 57.7267 172.771 57.5071 173.273 57.0808C173.592 56.8104 174.376 56.4264 175.016 56.2274C175.655 56.0287 176.178 55.7658 176.176 55.6435C176.175 55.5212 176.038 54.9174 175.871 54.3017C175.398 52.5475 175.268 50.1783 175.528 48.069C175.948 44.6674 176.921 42.4536 178.796 40.6329C179.999 39.4645 180.711 39.0193 182.817 38.1172C184.53 37.3832 188.5 37.1953 191.1 37.7251ZM142.286 38.5545C144.227 39.0499 145.319 39.6398 145.487 40.2833C145.771 41.3713 145.66 43.6326 145.304 43.9828C145.003 44.2803 144.91 44.2814 144.344 43.9928C142.046 42.8207 139.014 42.2973 137.458 42.8042C135.264 43.5182 135.284 46.0683 137.493 47.1729C137.917 47.3852 139.263 47.9578 140.482 48.4453C144.231 49.943 146.009 51.4689 146.629 53.7217C146.977 54.9822 146.757 57.7556 146.23 58.7646C144.711 61.6716 141.564 63.2285 137.208 63.2273C134.093 63.2264 130.502 62.2202 129.944 61.1922C129.57 60.5022 129.437 58.609 129.696 57.6608C129.889 56.9539 130.033 56.7754 130.41 56.7754C130.671 56.7754 131.074 56.9068 131.306 57.0675C132.13 57.6371 134.481 58.4596 135.821 58.6475C139.187 59.1196 141.477 57.4004 140.413 55.1999C139.988 54.3209 139.553 54.0447 136.859 52.9436C133.808 51.6967 132.975 51.2468 131.889 50.2593C130.206 48.7286 129.557 46.6846 129.958 44.1708C130.389 41.465 132.162 39.6627 135.413 38.626C136.924 38.1441 140.532 38.1066 142.286 38.5545ZM125.208 39.1027L125.697 39.5558V50.7549C125.697 63.3252 125.812 62.4727 124.08 62.7287C122.85 62.9108 120.025 62.6856 119.646 62.3752C119.412 62.1839 119.363 60.2711 119.378 51.906C119.388 46.2765 119.465 41.1194 119.551 40.4456C119.761 38.7837 119.989 38.6497 122.608 38.6497C124.485 38.6497 124.773 38.6999 125.208 39.1027ZM155.131 39.4658C155.695 39.557 156.247 39.7625 156.358 39.9221C156.475 40.0906 156.533 41.9161 156.495 44.2749L156.429 48.3376L159.921 48.3944L163.412 48.4513L163.472 44.2276C163.506 41.82 163.621 39.9143 163.74 39.7956C164.046 39.4889 168.093 39.3997 169.038 39.6789L169.842 39.9164V51.2627C169.842 62.3312 169.832 62.6191 169.42 63.0256C169.048 63.3917 168.716 63.4423 166.684 63.4423C165.388 63.4423 164.135 63.3367 163.836 63.2023L163.302 62.9623L163.245 58.4052L163.189 53.8482L159.809 53.8236L156.429 53.799L156.373 58.3975L156.316 62.9958L155.558 63.2425C154.558 63.5681 150.794 63.4267 150.329 63.0458C150.022 62.7945 149.988 61.6235 149.99 51.4894C149.992 45.2868 150.075 40.0858 150.174 39.931C150.542 39.3593 153.032 39.1256 155.131 39.4658ZM186.297 42.1919C184.388 42.5147 183.526 43.2568 182.423 45.525C182 46.3956 181.837 47.1213 181.744 48.5459C181.5 52.3344 182.439 55.4678 184.175 56.6477C186.243 58.054 189.565 57.7542 191.205 56.0133C192.629 54.5013 193.173 52.4325 193.025 49.0909C192.908 46.4492 192.522 45.105 191.505 43.7891C190.492 42.4792 188.397 41.8369 186.297 42.1919Z" fill="white"/>
</g>
</svg>
