<svg width="209" height="47" viewBox="0 0 209 47" fill="none" xmlns="http://www.w3.org/2000/svg">
<g clip-path="url(#clip0_774_881)">
<path d="M175.024 5.53433L170.466 23.6264L170.581 23.6792C171.013 23.1031 171.404 22.5149 171.873 21.9592C173.951 19.4036 176.452 17.4564 179.804 16.8439C184.918 15.9069 190.447 17.858 191.833 24.6122C193.335 31.9139 189.6 40.68 183.252 44.7203C180.117 46.7161 176.703 47.4828 173.037 46.5944C169.812 45.8156 167.994 43.5926 167.212 40.5097C166.928 39.3941 166.846 38.2258 166.665 37.0576C166.583 37.1509 166.463 37.2604 166.365 37.3902C164.308 40.1527 162.23 42.8949 160.227 45.6898C159.754 46.347 159.26 46.6431 158.474 46.5255C158.281 46.4971 158.063 46.5255 157.804 46.493C158.145 45.1179 158.474 43.7873 158.807 42.4365C161.824 30.3886 164.841 18.3394 167.858 6.28884C168.002 5.70876 168.195 5.47754 168.862 5.47754C170.882 5.57084 172.906 5.53433 175.024 5.53433ZM185 26.6282C184.934 25.9021 184.906 25.2003 184.799 24.5067C184.149 20.2514 180.339 18.1988 176.345 19.9512C174.58 20.7219 173.268 22.0241 172.153 23.5331C170.123 26.3813 168.783 29.651 168.236 33.0903C167.85 35.2402 167.669 37.4064 168.236 39.5564C169.31 43.6129 173.136 45.2355 176.834 43.0977C177.74 42.5798 178.56 41.9287 179.266 41.1668C183.026 37.0494 184.614 32.064 185 26.6445V26.6282Z" fill="white"/>
<path d="M87.3994 46.3676L89.5016 38.0882L96.0056 12.5646C96.5609 10.3984 97.104 8.2241 97.6758 6.07415C97.7293 5.87538 97.9637 5.5752 98.1201 5.57114C100.3 5.53869 102.485 5.5468 104.756 5.5468C103.205 11.6316 101.67 17.6352 100.095 23.8011C100.831 22.8195 101.419 21.9473 102.094 21.1441C105.385 17.1971 110.486 15.6638 115.205 17.1566C118.36 18.1545 120.29 20.5803 120.623 23.9026C120.849 26.158 120.335 28.3079 119.775 30.4579C118.423 35.6178 117.083 40.7763 115.756 45.9335C115.723 46.0593 115.674 46.181 115.62 46.3392H108.767C109.014 45.3494 109.252 44.388 109.495 43.4266C110.815 38.2343 112.148 33.05 113.44 27.8536C113.861 26.3183 113.874 24.7018 113.477 23.1602C113.242 22.1767 112.683 21.2974 111.889 20.6592C111.094 20.0209 110.108 19.6595 109.083 19.631C106.006 19.4039 103.735 20.8115 101.876 23.0629C99.8808 25.4968 98.9099 28.3769 98.1736 31.3625C96.9668 36.1979 95.7327 41.0265 94.4711 45.8483C94.4217 46.0471 94.1831 46.3473 94.0268 46.3473C91.8547 46.3757 89.6744 46.3676 87.3994 46.3676Z" fill="white"/>
<path d="M148.737 46.5299C148.075 43.5443 147.42 40.6195 146.725 37.496C146.54 37.857 146.425 38.0679 146.314 38.2829C144.545 41.8202 142.109 44.7206 138.251 46.1404C135.174 47.2722 132.039 47.3574 129.011 45.9701C125.983 44.5827 124.811 42.0717 124.654 38.9604C124.548 36.8672 125.128 34.8755 125.638 32.8756C126.918 27.859 128.199 22.8398 129.48 17.8178C129.558 17.5014 129.587 17.1931 130.077 17.2012C132.133 17.2255 134.19 17.2012 136.247 17.2012C136.362 17.2132 136.477 17.2335 136.589 17.262C136.317 18.3208 136.054 19.3512 135.787 20.3815C134.491 25.4197 133.162 30.4498 131.924 35.5002C131.659 36.6545 131.558 37.8395 131.623 39.0212C131.755 42.2178 134.133 44.1933 137.383 43.9377C139.942 43.739 141.85 42.4247 143.409 40.5384C145.388 38.1531 146.396 35.3379 147.112 32.3848C148.313 27.4845 149.58 22.5964 150.814 17.7042C150.893 17.3959 150.958 17.185 151.353 17.189C153.41 17.189 155.467 17.189 157.524 17.189C157.628 17.2024 157.729 17.2255 157.828 17.258C157.499 18.5966 157.183 19.9109 156.854 21.2253C154.838 29.3194 152.819 37.4121 150.798 45.5036C150.489 46.7205 150.732 46.469 149.519 46.5015L148.737 46.5299Z" fill="white"/>
<path d="M36.1697 7.25442C32.7251 7.25442 31.0041 8.13333 31.0069 9.89116V40.4692C31.0069 42.2271 32.7278 43.1046 36.1697 43.1019V46.3471H16.917V43.1019C20.3973 43.1019 22.1374 42.2243 22.1374 40.4692V9.89116C22.1374 8.13604 20.3973 7.25713 16.917 7.25442V3.87939H36.1697V7.25442Z" fill="white"/>
<path d="M65.2462 3.87937C67.5219 3.86349 69.7947 4.04539 72.0381 4.42295C73.9056 4.71645 75.6939 5.37873 77.2956 6.37008C78.7515 7.3077 79.9173 8.62283 80.6648 10.171C81.4574 11.7747 81.8551 13.8138 81.8578 16.2883C81.8606 18.7628 81.4629 20.8586 80.6648 22.5759C79.9242 24.1919 78.7597 25.5839 77.2915 26.6081C75.7078 27.6725 73.9177 28.4018 72.034 28.7499C69.7952 29.1895 67.5165 29.4016 65.2338 29.3827H56.2862V40.4611C56.2862 42.2216 58.4323 43.1019 62.7244 43.1019V46.3471H42.2539V43.1019C45.6931 43.1019 47.414 42.2243 47.4168 40.4692V9.89114C47.4168 8.13602 45.6958 7.25711 42.2539 7.2544V3.87937H65.2462ZM56.2862 8.68635V24.6934H64.23C67.362 24.6934 69.6041 23.9862 70.9562 22.5718C72.3082 21.1575 72.9843 19.0724 72.9843 16.3167C72.9843 13.9071 72.3082 12.0316 70.9562 10.6903C69.6041 9.34892 67.362 8.68094 64.23 8.68635H56.2862Z" fill="white"/>
<path d="M198.981 8.89494C199.29 9.18059 199.647 9.4103 200.036 9.57371C200.696 9.82576 201.412 9.89909 202.11 9.78622C202.472 9.74328 202.828 9.65811 203.171 9.53247C202.388 12.3008 200.878 14.8113 198.796 16.8054C200.941 16.6697 203.002 15.9196 204.728 14.6454C207.099 12.8629 209.354 9.57053 208.953 6.01177C208.886 5.43132 208.51 2.64013 206.493 1.14621C205.187 0.175636 203.621 -0.17855 201.794 0.0836531C200.29 0.299336 199.131 0.90198 198.309 1.8789C197.487 2.85581 197.184 4.09916 197.401 5.59309C197.609 7.0204 198.136 8.12102 198.981 8.89494Z" fill="#DA4533"/>
<path d="M10.019 8.89494C9.70984 9.18059 9.35296 9.4103 8.96443 9.57371C8.30409 9.82576 7.58844 9.89909 6.89038 9.78622C6.52798 9.74328 6.1719 9.65811 5.82946 9.53247C6.61224 12.3008 8.12218 14.8113 10.2038 16.8054C8.05856 16.6697 5.99849 15.9196 4.27153 14.6454C1.90119 12.8629 -0.354468 9.57053 0.0469608 6.01176C0.113866 5.43132 0.489819 2.64013 2.50652 1.14621C3.81276 0.175636 5.37918 -0.17855 7.20579 0.0836531C8.70956 0.299336 9.86925 0.90198 10.6912 1.8789C11.5132 2.85581 11.8159 4.09916 11.5992 5.59309C11.3911 7.0204 10.8643 8.12102 10.019 8.89494Z" fill="#DA4533"/>
</g>
<defs>
<clipPath id="clip0_774_881">
<rect width="209" height="47" fill="white"/>
</clipPath>
</defs>
</svg>
