<svg width="270" height="99" viewBox="0 0 270 99" fill="none" xmlns="http://www.w3.org/2000/svg">
<g opacity="0.6">
<path fill-rule="evenodd" clip-rule="evenodd" d="M54.846 3.52975C54.1173 3.82783 53.4669 4.64867 52.2433 6.81357C48.4884 13.457 42.0275 19.8219 35.26 23.5453C34.1071 24.1796 32.9149 24.991 32.6105 25.3483C30.896 27.361 32.3205 30.4278 34.9684 30.4255C36.4103 30.4243 37.2993 29.7538 38.4338 27.8117C43.1341 19.7646 48.8781 14.0976 56.8659 9.62584C58.478 8.72318 59.1835 7.90958 59.3771 6.72964C59.5473 5.69231 58.8841 4.31856 57.9375 3.74764C57.1845 3.29338 55.6824 3.18748 54.846 3.52975ZM66.4083 4.44878C65.3731 5.07347 64.4698 6.23704 63.1526 8.64275C61.0323 12.516 57.75 16.4525 51.4208 22.7132C45.0485 29.0164 41.0743 32.2526 37.1693 34.3179C34.4971 35.7312 33.1232 36.9777 32.7611 38.3169C32.0256 41.0382 34.3023 43.4318 37.1863 42.9688C38.7708 42.7145 39.5448 41.8305 42.2721 37.1615C43.941 34.3046 47.2199 30.3862 51.8916 25.6658C58.5168 18.9716 62.9042 15.3193 67.3726 12.7785C68.6726 12.0393 70.0212 11.2346 70.3693 10.9902C72.0512 9.8103 72.5459 7.19348 71.3821 5.63316C70.215 4.0684 67.938 3.52624 66.4083 4.44878ZM45.7136 5.15249C45.4004 5.3961 44.5619 6.57581 43.85 7.77398C42.1631 10.6129 39.4508 13.3527 36.9199 14.7734C34.1088 16.3518 33.4562 16.9669 33.4562 18.039C33.4562 18.7523 33.6056 19.0535 34.2083 19.5552C35.4531 20.5913 36.7847 20.0667 37.7689 18.1524C39.69 14.416 42.785 11.3183 46.6545 9.25832C48.9143 8.05547 49.4362 6.68662 48.1282 5.39283C47.3279 4.60121 46.5248 4.52125 45.7136 5.15249ZM77.2862 8.18966C76.0151 8.76082 74.9531 10.0319 73.4216 12.8154C67.609 23.3786 52.0145 38.7854 41.3749 44.4761C37.5309 46.5321 36.0024 48.4945 36.4456 50.8043C37.032 53.86 40.421 55.5503 43.1563 54.1513C44.1988 53.618 45.361 52.1421 46.8616 49.4453C50.7942 42.3792 58.7961 33.3458 68.0817 25.4902C72.3958 21.8402 74.8281 20.1249 78.7957 17.9336C81.6998 16.33 82.7785 15.4423 83.3583 14.1801C85.0992 10.3894 81.1224 6.46616 77.2862 8.18966ZM81.7584 19.8869C80.8258 20.4494 80.1436 21.3554 78.6943 23.9565C76.406 28.0637 72.3656 32.8413 65.8056 39.1964C59.9318 44.8866 56.3154 47.7415 52.0672 50.042C51.0587 50.5879 49.8741 51.3701 49.4345 51.7802C47.3955 53.6823 47.8942 56.961 50.3882 58.0523C52.7188 59.0721 54.7961 57.927 56.513 54.6762C58.7274 50.4836 62.5475 45.808 68.7813 39.6612C74.9411 33.5875 79.319 30.0542 83.4285 27.8405C86.5863 26.1394 87.5807 24.9772 87.5807 22.9872C87.5807 21.9078 86.8506 20.7314 85.7083 19.9699C84.6804 19.2847 82.8215 19.2456 81.7584 19.8869ZM83.895 32.2713C82.8915 32.7251 82.7289 32.9357 80.4485 36.7388C76.8881 42.6773 70.4873 48.8368 64.5364 52.0514C61.6463 53.6126 60.8765 54.4484 60.8753 56.0265C60.8737 58.3738 63.2975 59.889 65.3632 58.8323C66.1923 58.4082 66.8229 57.5845 68.3168 54.9745C71.544 49.3366 78.6414 42.2934 84.0354 39.3759C87.4462 37.5311 88.2871 36.6722 88.2888 35.0321C88.2912 32.7117 86.0437 31.2994 83.895 32.2713ZM83.6253 42.7068C83.3419 42.9032 82.5062 44.0866 81.7679 45.3369C80.0432 48.2579 77.1611 51.1263 74.4506 52.619C73.4176 53.1881 72.3386 53.8588 72.0529 54.1097C71.3412 54.7341 71.1609 55.7193 71.6033 56.5657C72.0134 57.35 72.3958 57.5462 73.5161 57.5462C74.4414 57.5462 75.029 56.9472 76.3074 54.7C78.0983 51.5522 80.8357 48.884 84.0867 47.1168C86.1614 45.989 86.6825 45.4246 86.6825 44.305C86.6825 42.7355 84.9165 41.8123 83.6253 42.7068ZM231.364 59.1923C229.548 59.5477 227.998 60.3734 226.92 61.5594C225.564 63.0505 225.042 64.587 225.191 66.6451C225.386 69.3416 226.601 71.1065 229.1 72.3229C230.6 73.0528 230.82 73.0933 233.287 73.0933C235.246 73.0933 236.169 72.9871 237.014 72.6647L238.137 72.2364V70.1515C238.137 69.005 238.1 68.0668 238.055 68.0668C238.011 68.0668 237.346 68.2811 236.578 68.543C234.366 69.2977 232.75 69.3828 231.448 68.813C228.838 67.6709 228.737 64.6434 231.27 63.5132C232.574 62.9315 235 63.1139 236.8 63.9287L238.137 64.5339V62.3578V60.1815L237.132 59.8079C234.914 58.983 233.309 58.8117 231.364 59.1923ZM90.9312 60.4101C90.788 61.0851 90.1356 64.0572 89.4814 67.0147C88.8272 69.9722 88.2914 72.5235 88.2907 72.6841C88.29 72.8962 88.8683 72.9764 90.3973 72.9764H92.5048L92.7414 71.8659C92.8716 71.255 93.3233 68.9669 93.745 66.7809C94.3245 63.7772 94.5568 62.9493 94.6963 63.3909C94.7977 63.7124 95.156 65.8691 95.4921 68.1836C95.8284 70.4982 96.1503 72.5235 96.2073 72.6841C96.2846 72.9025 97.3302 72.9764 100.344 72.9764C103.366 72.9764 104.398 72.9032 104.463 72.6841C104.511 72.5235 104.835 70.4982 105.185 68.1836C105.534 65.8691 105.898 63.7164 105.994 63.3996C106.121 62.9778 106.373 63.8854 106.935 66.7896C107.356 68.9708 107.81 71.255 107.942 71.8659L108.182 72.9764H110.408C111.632 72.9764 112.633 72.8976 112.633 72.801C112.632 72.7045 112.256 70.8898 111.797 68.7681C110.827 64.28 109.798 59.3894 109.798 59.2673C109.798 59.2208 108.169 59.1827 106.18 59.1827H102.562L101.663 63.917C101.168 66.5207 100.688 68.9103 100.596 69.2271C100.418 69.8396 100.363 69.6072 99.0279 62.5142L98.4006 59.1827H94.7958H91.1912L90.9312 60.4101ZM114.997 66.0756V72.9764H120.906H126.815V71.2229V69.4695H122.915H119.015V68.6512V67.833H122.797H126.579V66.0795V64.3261H122.797H119.015V63.6306V62.935L122.856 62.8708L126.697 62.8065V61.053V59.2996L120.847 59.2372L114.997 59.1745V66.0756ZM127.997 61.1699V63.1572H130.237H132.478L132.542 68.0083L132.606 72.8595L134.674 72.927L136.742 72.9946V68.0759V63.1572H138.987H141.232V61.1699V59.1827H134.615H127.997V61.1699ZM145.252 59.7087C144.64 61.143 140.287 72.5983 140.287 72.7739C140.287 72.8852 141.223 72.9764 142.367 72.9764H144.448L144.873 71.8074L145.298 70.6385H148.328H151.358L151.75 71.8074L152.143 72.9764H154.369C155.593 72.9764 156.595 72.9058 156.595 72.8193C156.595 72.733 156.342 72.023 156.033 71.2412C155.724 70.4596 154.538 67.4266 153.397 64.5014L151.323 59.1827H148.4C145.592 59.1827 145.468 59.2035 145.252 59.7087ZM165.104 60.001V60.8192L163.154 60.8216C161.611 60.8232 160.957 60.9375 160.022 61.3684C156.916 62.7992 156.156 67.2712 158.573 69.9013C159.532 70.9456 160.825 71.4165 163.036 71.5271L165.104 71.6309V72.3035V72.9764H167.231H169.358V72.3035V71.6309L171.426 71.5271C175.317 71.3323 177.231 69.5357 177.231 66.0795C177.231 64.4633 176.801 63.3208 175.837 62.3756C174.708 61.2688 173.876 60.9649 171.604 60.8293L169.476 60.7023L169.402 59.9425L169.328 59.1827H167.216H165.104V60.001ZM179.285 66.0618V72.9764H181.294H183.303V71.3398V69.7033H185.182C188.731 69.7033 190.539 68.907 191.582 66.8845C192.55 65.009 192.071 61.9987 190.594 60.6713C189.196 59.4151 188.68 59.3045 183.835 59.2234L179.285 59.1469V66.0618ZM197.589 59.9975C197.399 60.4456 196.489 62.7866 195.566 65.1993C194.642 67.6123 193.633 70.2464 193.322 71.053C193.011 71.8595 192.757 72.6222 192.757 72.7479C192.757 72.8793 193.641 72.9764 194.837 72.9764H196.918L197.343 71.8074L197.768 70.6385H200.761H203.755L204.174 71.8074L204.594 72.9764H206.83C208.059 72.9764 209.065 72.9399 209.065 72.8952C209.065 72.8188 208.148 70.4215 205.966 64.7937C205.443 63.4435 204.743 61.6286 204.413 60.7608L203.811 59.1827H200.872H197.933L197.589 59.9975ZM210.72 66.0795V72.9946L212.788 72.927L214.856 72.8595L214.919 70.6385C215.033 66.6483 214.775 66.7082 217.532 70.0339L219.972 72.9764H222.555C223.975 72.9764 225.137 72.913 225.137 72.8354C225.137 72.7578 223.872 71.1469 222.325 69.2558L219.513 65.8175L220.361 64.7797C220.826 64.2087 221.985 62.824 222.936 61.7023C223.887 60.5805 224.665 59.5549 224.665 59.4228C224.665 59.2748 223.774 59.1827 222.344 59.1827H220.023L217.56 62.2054C216.206 63.8676 215.063 65.1935 215.021 65.1516C214.979 65.1098 214.924 63.776 214.9 62.1876L214.856 59.2996L212.788 59.232L210.72 59.1645V66.0795ZM149.255 64.8334C149.652 65.9481 149.977 66.9214 149.977 66.996C149.977 67.0706 149.233 67.1316 148.323 67.1316C147.413 67.1316 146.668 67.0528 146.667 66.9562C146.663 66.4632 148.225 62.499 148.367 62.6409C148.458 62.7319 148.858 63.7185 149.255 64.8334ZM201.62 64.6768C201.987 65.7055 202.334 66.6787 202.392 66.8394C202.471 67.0556 202.061 67.1316 200.818 67.1316C199.894 67.1316 199.137 67.0528 199.135 66.9562C199.127 66.4961 200.677 62.4848 200.806 62.6349C200.887 62.7293 201.253 63.6481 201.62 64.6768ZM187.321 63.3909C187.581 63.6481 187.794 64.1215 187.794 64.443C187.794 65.5477 187.051 65.9626 185.076 65.9626H183.303V64.443V62.9234H185.076C186.533 62.9234 186.932 63.0066 187.321 63.3909ZM165.104 66.0795V67.833H163.942C162.435 67.833 162.089 67.6861 161.658 66.8627C160.966 65.5374 162.123 64.3364 164.099 64.3296L165.104 64.3261V66.0795ZM172.427 64.9073C173.078 65.4904 173.058 66.7377 172.386 67.3563C172 67.7119 171.55 67.833 170.614 67.833H169.358V66.0505V64.2681L170.655 64.3745C171.453 64.44 172.134 64.6448 172.427 64.9073ZM89.1075 81.9177C89.0435 82.0823 89.0196 85.2141 89.0541 88.8772L89.117 95.5372H91.1259H93.1349L93.1988 90.5691L93.2626 85.6011H96.9307H100.599L100.53 83.6723L100.462 81.7435L94.8428 81.6809C90.4467 81.6318 89.1983 81.6832 89.1075 81.9177ZM101.998 88.6242V95.6723L104.066 95.6047L106.134 95.5372V93.9006V92.2641L108.734 92.1472C111.891 92.0053 113.045 91.4959 114.124 89.7693C115.37 87.7739 114.986 84.6516 113.304 83.099C112.082 81.9719 111.144 81.7772 106.43 81.6736L101.998 81.5761V88.6242ZM115.235 81.9104C115.236 82.0757 115.794 83.0527 116.476 84.0814C119.121 88.0718 120.67 90.5485 120.67 90.7861C120.67 91.0582 119.185 93.5719 118.501 94.4582C117.663 95.5428 117.869 95.6777 120.253 95.6045L122.435 95.5372L125.686 90.3938C127.474 87.5649 129.41 84.5198 129.989 83.6267C130.567 82.7336 130.987 81.9182 130.923 81.8148C130.776 81.5796 127.022 81.5714 126.688 81.8055C126.553 81.8999 125.756 83.0558 124.916 84.3737C124.076 85.6915 123.335 86.7681 123.27 86.7658C123.205 86.7635 122.407 85.6326 121.497 84.2526L119.843 81.7435L117.538 81.6767C115.782 81.6257 115.234 81.6813 115.235 81.9104ZM131.887 81.9182C131.823 82.0825 131.799 85.2141 131.834 88.8772L131.897 95.5372H133.906H135.915L135.978 90.5691L136.042 85.6011H138.633H141.223L141.287 90.5691L141.351 95.5372H143.36H145.369L145.321 88.6403L145.273 81.7435L138.638 81.6813C133.423 81.6327 131.978 81.6832 131.887 81.9182ZM148.575 81.9588C148.363 82.2109 148.31 84.0031 148.366 88.9176L148.441 95.5372H150.45H152.459L152.523 90.5691L152.587 85.6011H155.177H157.768L157.831 90.5691L157.895 95.5372H159.904H161.913V88.6403V81.7435L155.386 81.6813C149.915 81.6294 148.814 81.6743 148.575 81.9588ZM109.81 85.724C110.734 86.1968 110.836 87.218 110.039 88.0264C109.473 88.602 106.55 88.8713 106.221 88.3783C106.016 88.0697 105.989 85.9078 106.186 85.5426C106.359 85.2214 109.095 85.3582 109.81 85.724Z" fill="white"/>
</g>
</svg>
