<svg width="270" height="99" viewBox="0 0 270 99" fill="none" xmlns="http://www.w3.org/2000/svg">
<g opacity="0.6">
<path fill-rule="evenodd" clip-rule="evenodd" d="M204.732 11.7411C204.565 11.806 202.3 14.0035 199.7 16.6247C195.802 20.5546 194.973 21.49 194.973 21.9586C194.973 22.3862 195.288 22.8358 196.244 23.7759C196.943 24.463 197.729 25.0893 197.99 25.1679C198.409 25.2937 199.05 24.7199 203.353 20.3735C207.207 16.4789 208.24 15.3246 208.24 14.9079C208.24 14.5224 207.854 14.0023 206.815 12.9852C205.38 11.5812 205.288 11.526 204.732 11.7411ZM205.342 31.6577C205.286 31.7143 204.6 31.8137 203.817 31.8786C201.601 32.062 200.677 32.2145 199.141 32.6495C195.208 33.7637 192.9 35.1067 190.076 37.925C186.448 41.5459 184.957 44.6204 184.082 50.2851C183.714 52.6709 183.719 54.4412 184.102 57.0324C184.753 61.4341 186.016 64.5029 188.396 67.4678C191.943 71.8841 196.389 74.3895 201.988 75.1256C205.71 75.6151 214.74 75.525 215.27 74.9933C215.345 74.9181 215.438 74.0352 215.478 73.0312C215.532 71.6249 215.476 71.0932 215.23 70.7167L214.911 70.2281L209.364 70.1252C203.616 70.0188 201.718 69.8854 201.388 69.5646C201.281 69.4615 200.997 69.377 200.755 69.377C199.495 69.377 195.865 67.3841 194.085 65.715C193.008 64.7053 191.401 62.4163 190.851 61.1072C190.375 59.9729 189.687 57.3513 189.687 56.6701C189.687 56.1184 189.715 56.1043 190.856 56.0992C191.499 56.0962 196.965 56.0378 203.002 55.9692C212.763 55.8583 214.008 55.8081 214.239 55.515C214.568 55.0987 214.468 51.5072 214.118 51.1558C213.943 50.9793 210.74 50.9146 201.835 50.9075L189.789 50.8977L189.829 50.008C189.885 48.7929 190.619 46.435 191.362 45.0853C193.08 41.9655 195.315 39.9718 198.633 38.5994C201.93 37.236 204.088 36.9105 209.833 36.9105C212.674 36.9105 214.673 36.8272 214.912 36.6992C215.261 36.5111 215.305 36.2549 215.305 34.3759C215.305 32.7183 215.237 32.2076 214.99 32.0018C214.762 31.8115 213.406 31.7139 210.059 31.6469C207.521 31.5962 205.398 31.6009 205.342 31.6577ZM119.34 32.1927C116.754 32.7295 114.946 33.3329 113.152 34.2583C105.612 38.1479 101.071 45.7647 101.212 54.2862C101.339 61.9767 105.163 68.5559 111.919 72.7063C113.489 73.6709 116.059 74.7436 117.612 75.0821C118.283 75.2285 119.152 75.4284 119.543 75.5264C120.716 75.8201 125.393 75.7376 127.03 75.3945C132.533 74.2417 137.043 71.3607 140.447 66.8246C141.516 65.4012 143.052 62.4576 143.539 60.903C143.679 60.4538 143.867 59.9025 143.955 59.6779C144.284 58.8462 144.393 57.7573 144.486 54.3834C144.569 51.3548 144.527 50.6973 144.148 49.0744C142.47 41.9044 137.914 36.3956 131.336 33.583C127.65 32.0073 122.891 31.4556 119.34 32.1927ZM62.1142 32.366C60.4055 33.0762 59.7939 34.206 59.3778 37.421C59.247 38.4318 59.0579 39.856 58.9575 40.586C58.8571 41.316 58.6739 42.6943 58.5505 43.6489C58.4268 44.6035 58.2447 45.9358 58.1459 46.6096C58.0468 47.2835 57.8649 48.6618 57.7413 49.6725C57.6177 50.6833 57.433 52.0615 57.3308 52.7354C57.2287 53.4092 57.0461 54.7416 56.9256 55.6962C56.8048 56.6508 56.6173 58.0979 56.509 58.9122C56.4008 59.7265 56.2176 61.1048 56.1021 61.975C55.887 63.5961 55.4336 66.8105 55.0868 69.1728C54.9796 69.9028 54.8513 70.9135 54.8019 71.4189C54.7523 71.9243 54.6476 72.8644 54.5691 73.508C54.3646 75.1836 54.5098 75.2985 56.832 75.2985C57.8734 75.2985 58.9374 75.2175 59.1962 75.1187C59.7828 74.8945 60.0257 74.0334 60.4708 70.6021C60.6529 69.1983 60.8426 67.7741 60.8925 67.4372C61.0368 66.4591 61.9798 59.6305 62.2177 57.8402C62.337 56.9417 62.5175 55.6094 62.619 54.8794C63.0016 52.1246 63.6183 47.3553 63.8336 45.4866C64.2061 42.2542 64.5218 40.2566 64.592 40.6881C64.6286 40.9127 64.7467 41.4181 64.8547 41.8111C66.8016 48.9025 67.8855 52.7117 68.8358 55.8029C69.2164 57.041 69.5277 58.2071 69.5277 58.3943C69.5277 58.5818 69.6192 58.7917 69.731 58.8611C69.8428 58.9305 69.9343 59.2072 69.9343 59.4762C69.9343 59.7451 70.0207 60.1761 70.1262 60.434C70.2319 60.6919 70.5158 61.5922 70.7573 62.4345C70.9988 63.2768 71.2674 64.1956 71.354 64.4764C71.4407 64.7572 71.7192 65.676 71.9725 66.5183C73.021 70.0016 74.2263 73.5094 74.5398 73.9899C75.1085 74.8616 75.8341 75.0944 77.9819 75.0944C81.2285 75.0944 81.5838 74.6654 83.1433 68.8665C83.234 68.5296 83.6392 67.1513 84.0442 65.8036C84.449 64.456 84.965 62.7101 85.1907 61.924C85.7002 60.1496 86.5925 57.1945 86.8247 56.5129C86.9205 56.2322 87.7327 53.3837 88.6299 50.183C89.5272 46.9823 90.3451 44.0879 90.448 43.7509C90.5507 43.414 90.7513 42.633 90.8939 42.0153C91.2602 40.4296 91.4318 40.3595 91.5764 41.7368C91.6455 42.3953 91.7907 43.6464 91.8988 44.5167C92.4183 48.6942 92.5171 49.4822 92.7174 51.0508C92.8357 51.9772 93.0199 53.3326 93.1267 54.0626C93.6217 57.4461 94.1778 61.3694 94.559 64.1701C94.7882 65.8547 95.0142 67.4168 95.061 67.6414C95.181 68.2158 95.478 70.1072 95.6384 71.3168C95.9052 73.3303 96.2209 74.6852 96.4724 74.8949C96.6269 75.0235 97.6435 75.0852 99.0374 75.0503L101.347 74.9923L101.416 74.2776C101.454 73.8845 101.382 72.8738 101.256 72.0315C100.961 70.0578 100.71 68.2523 100.446 66.212C100.039 63.0575 99.7924 61.2947 99.5037 59.4737C99.3434 58.463 98.7992 54.5578 98.2943 50.7956C97.7893 47.0333 97.2845 43.3119 97.1722 42.5258C97.0602 41.7397 96.8784 40.4304 96.7685 39.6161C96.0912 34.5997 95.9428 34.0672 94.9402 33.0605C93.9879 32.1041 92.6328 31.8319 90.3719 32.1431C89.6447 32.2431 89.2143 32.4585 88.6373 33.0109C87.9818 33.6386 87.7614 34.1021 87.1238 36.1959C85.908 40.187 85.7524 40.6709 85.565 41.0426C85.4668 41.2376 85.3867 41.5132 85.3873 41.6551C85.3879 41.797 85.1067 42.8321 84.7627 43.9551C84.4185 45.0782 84.0397 46.3646 83.921 46.8138C83.5647 48.1601 83.3814 48.7945 82.9766 50.0809C82.486 51.6405 80.8737 57.0383 80.5067 58.3506C80.3967 58.7437 80.1324 59.6626 79.9195 60.3926C79.7064 61.1225 79.3315 62.5008 79.0863 63.4554C78.8413 64.41 78.5573 65.4022 78.4554 65.6601C78.3536 65.918 78.2688 66.3315 78.2672 66.579C78.2653 66.8264 78.183 67.1574 78.0838 67.3147C77.8807 67.6369 77.9315 67.7919 75.9128 60.6988C75.1776 58.1158 74.4975 55.7268 74.4015 55.3899C73.9274 53.7269 73.7605 53.1013 73.6661 52.6333C73.6096 52.3525 73.488 51.939 73.3959 51.7144C73.1491 51.1131 72.8734 50.2555 72.4105 48.6515C72.1838 47.8654 71.7072 46.2574 71.3516 45.0782C70.996 43.899 70.5394 42.3829 70.3371 41.709C68.4916 35.5651 67.8218 33.7272 67.2015 33.1042C66.1217 32.0197 63.7685 31.6781 62.1142 32.366ZM149.622 32.6119C148.236 33.0344 147.582 33.6686 147.101 35.0581C146.827 35.8475 146.787 38.3909 146.787 55.1032C146.787 65.6307 146.843 74.3895 146.911 74.5671C147.014 74.8367 147.434 74.8902 149.445 74.8902C151.618 74.8902 151.877 74.8514 152.066 74.4965C152.208 74.2296 152.238 68.5514 152.157 56.885C152.042 40.1174 152.049 39.6837 152.412 40.2989C153.281 41.7693 154.31 43.3991 155.886 45.8018C156.808 47.2079 157.563 48.3951 157.563 48.4402C157.563 48.4853 158.204 49.4928 158.986 50.6792C159.769 51.8655 160.41 52.9208 160.41 53.0241C160.41 53.1274 160.485 53.2424 160.578 53.28C160.671 53.3173 161.241 54.129 161.845 55.0836C162.449 56.0382 163.01 56.9111 163.092 57.0234C163.174 57.1357 165.585 60.7652 168.45 65.089C171.314 69.4127 173.994 73.2572 174.404 73.6323C175.629 74.7527 176.174 74.9518 177.713 74.8412C179.976 74.6786 181.104 73.7012 181.557 71.5075C181.721 70.7144 181.768 65.0155 181.722 51.604C181.664 35.1702 181.618 32.7875 181.351 32.6182C180.894 32.3279 176.808 32.366 176.512 32.6633C176.326 32.85 176.267 36.9994 176.264 50.0707L176.259 67.233L175.35 65.8036C173.42 62.7728 169.728 57.0996 166.56 52.3002C164.743 49.5471 163.256 47.2093 163.256 47.1052C163.256 47.0011 163.171 46.9159 163.066 46.9159C162.962 46.9159 162.819 46.7328 162.748 46.5088C162.677 46.2848 162.492 45.9738 162.337 45.8178C162.181 45.6616 161.89 45.2542 161.689 44.9126C161.359 44.3498 157.776 38.931 157.411 38.442C157.327 38.3297 156.807 37.5486 156.256 36.7063C154.721 34.3604 153.786 33.3206 152.787 32.849C151.863 32.4126 150.589 32.3172 149.622 32.6119ZM126.189 37.5021C127.063 37.715 128.051 37.9966 128.384 38.1277C134.013 40.3395 137.916 45.1756 138.859 51.1082C140.045 58.5622 136.386 65.7044 129.72 68.9472C129.003 69.2959 128.256 69.5812 128.058 69.5812C127.861 69.5812 127.65 69.6629 127.588 69.7629C127.527 69.8628 127.132 70.0131 126.712 70.0968C125.686 70.3016 120.253 70.3095 119.255 70.108C118.068 69.8681 115.488 68.7258 114.239 67.887C112.341 66.6126 110.12 64.3188 109.255 62.7408C107.458 59.4596 106.941 57.753 106.788 54.6015C106.557 49.8497 108.312 45.3349 111.722 41.9022C115.575 38.0234 121.249 36.2978 126.189 37.5021Z" fill="white"/>
</g>
</svg>
