<svg width="11" height="14" viewBox="0 0 11 14" fill="none" xmlns="http://www.w3.org/2000/svg">
<path d="M9.44616 7.41005C9.15468 7.64802 8.8182 7.83938 8.45187 7.97551C7.82927 8.18549 7.15452 8.24658 6.49634 8.15255C6.15465 8.11678 5.81892 8.04583 5.49605 7.94116C6.23409 10.2474 7.65775 12.3388 9.62038 14C7.59777 13.8869 5.65542 13.2621 4.02714 12.2006C1.79225 10.7156 -0.33451 7.97287 0.0439806 5.00818C0.107062 4.52464 0.461532 2.1994 2.36299 0.954866C3.59459 0.146316 5.0715 -0.148743 6.79373 0.0696884C8.21157 0.249366 9.30498 0.751407 10.08 1.56524C10.855 2.37908 11.1404 3.41487 10.9361 4.6594C10.7398 5.84844 10.2432 6.76533 9.44616 7.41005Z" fill="#DA4533"/>
</svg>
