<svg width="11" height="14" viewBox="0 0 11 14" fill="none" xmlns="http://www.w3.org/2000/svg">
<path d="M1.55384 7.41005C1.84532 7.64802 2.1818 7.83938 2.54813 7.97551C3.17073 8.18549 3.84548 8.24658 4.50366 8.15255C4.84535 8.11678 5.18108 8.04583 5.50395 7.94116C4.76591 10.2474 3.34225 12.3388 1.37962 14C3.40223 13.8869 5.34458 13.2621 6.97286 12.2006C9.20775 10.7156 11.3345 7.97287 10.956 5.00819C10.8929 4.52464 10.5385 2.1994 8.63701 0.954866C7.40541 0.146316 5.9285 -0.148743 4.20627 0.0696884C2.78843 0.249366 1.69502 0.751407 0.920013 1.56524C0.14501 2.37908 -0.140353 3.41487 0.0639118 4.6594C0.260166 5.84844 0.756807 6.76533 1.55384 7.41005Z" fill="#DA4533"/>
</svg>
