<svg width="58" height="50" viewBox="0 0 58 50" fill="none" xmlns="http://www.w3.org/2000/svg">
<path d="M57.3536 24.6464C57.5488 24.8417 57.5488 25.1583 57.3536 25.3536L54.1716 28.5355C53.9763 28.7308 53.6597 28.7308 53.4645 28.5355C53.2692 28.3403 53.2692 28.0237 53.4645 27.8284L56.2929 25L53.4645 22.1716C53.2692 21.9763 53.2692 21.6597 53.4645 21.4645C53.6597 21.2692 53.9763 21.2692 54.1716 21.4645L57.3536 24.6464ZM15 24.5L57 24.5V25.5L15 25.5L15 24.5Z" fill="#DA4533"/>
<path d="M20 44.5C30.7696 44.5 39.5 35.7695 39.5 25C39.5 14.2304 30.7695 5.5 20 5.5C9.23044 5.5 0.499998 14.2304 0.499998 25C0.499999 35.7696 9.23045 44.5 20 44.5Z" stroke="#DA4533"/>
</svg>
