<svg width="58" height="50" viewBox="0 0 58 50" fill="none" xmlns="http://www.w3.org/2000/svg">
<path d="M0.646446 24.6464C0.451183 24.8417 0.451183 25.1583 0.646446 25.3536L3.82843 28.5355C4.02369 28.7308 4.34027 28.7308 4.53553 28.5355C4.7308 28.3403 4.7308 28.0237 4.53553 27.8284L1.70711 25L4.53553 22.1716C4.7308 21.9763 4.7308 21.6597 4.53553 21.4645C4.34027 21.2692 4.02369 21.2692 3.82843 21.4645L0.646446 24.6464ZM43 24.5L1 24.5V25.5L43 25.5V24.5Z" fill="#DA4533"/>
<path d="M38 44.5C27.2304 44.5 18.5 35.7695 18.5 25C18.5 14.2304 27.2305 5.5 38 5.5C48.7696 5.5 57.5 14.2304 57.5 25C57.5 35.7696 48.7696 44.5 38 44.5Z" stroke="#DA4533"/>
</svg>
