<svg width="387" height="387" viewBox="0 0 387 387" fill="none" xmlns="http://www.w3.org/2000/svg">
<path opacity="0.1" d="M194.112 0.108155V0H0.138144V186.081C0.0493465 188.5 0 190.929 0 193.367C0 195.806 0.0493465 198.225 0.138144 200.654V386.892H192.464V387H387V194.439V192.62V0.117998H194.112V0.108155ZM45.8492 314.487H112.221C114.194 314.615 116.157 314.694 118.121 314.714C120.301 314.733 122.472 314.664 124.642 314.487H192.247V383.932C133.374 383.598 80.727 356.614 45.8492 314.487ZM119.867 222.74V312.825H112.27C95.0037 311.724 77.4415 306.65 64.3389 298.832C30.3984 278.595 15.6777 251.316 9.30402 232.003C2.4074 211.077 3.5322 194.774 3.54207 194.616C3.54207 194.597 3.54207 194.577 3.54207 194.557H119.877V218.168C119.867 218.236 119.857 218.305 119.847 218.364C119.68 219.78 119.689 221.265 119.867 222.74ZM266.748 164.25V74.1647H274.385C291.73 75.2661 309.361 80.3403 322.523 88.158C356.611 108.395 371.391 135.674 377.795 154.987C384.721 175.913 383.596 192.217 383.576 192.374C383.576 192.394 383.576 192.413 383.576 192.433H266.738V168.823C266.748 168.754 266.758 168.685 266.768 168.626C266.936 167.21 266.926 165.735 266.748 164.25ZM187.748 220.37C190.629 226.113 191.941 232.112 192.247 237.972V238.543H149.565V194.744C152.071 194.597 154.607 194.675 156.915 195.019C171.32 197.124 182.282 209.494 187.748 220.37ZM162.273 194.557H192.237V227.529C191.507 224.864 190.51 222.219 189.208 219.613C185.903 213.025 181.414 207.154 176.234 202.64C171.843 198.795 167.167 196.091 162.273 194.557ZM163.358 142.557C163.279 143.049 163.141 143.501 162.954 143.836C162.125 145.35 160.665 146.402 158.977 146.874V142.557H163.358ZM158.977 140.905V138.152H160.082V140.905H158.977ZM161.74 140.905V139.214C162.332 139.214 162.746 139.44 163.023 139.912C163.19 140.187 163.299 140.532 163.358 140.905H161.74ZM164.364 144.701V147.926H160.921C162.352 147.228 163.565 146.127 164.364 144.701ZM163.615 138.152H164.364V138.939C164.157 138.624 163.901 138.368 163.615 138.152ZM148.726 136.5C148.943 133.382 150.552 129.479 152.298 127.335C154.784 124.296 159.481 122.064 164.088 121.494H164.364V136.5H148.726ZM157.32 138.152V147.14C156.412 147.179 155.475 147.061 154.557 146.756C150.7 145.468 149.299 141.043 148.805 138.525C148.786 138.407 148.766 138.27 148.756 138.152H157.32ZM151.015 126.302C149.95 127.61 148.943 129.439 148.213 131.396V121.494H157.784C155.051 122.654 152.643 124.316 151.015 126.302ZM153.087 147.926H148.203V142.321C149.308 144.986 150.976 146.904 153.087 147.926ZM191.931 149.578C191.941 149.805 191.951 150.031 191.961 150.257V153.64C191.912 154.771 191.813 155.882 191.655 156.944C189.553 171.36 177.201 182.334 166.348 187.801C160.428 190.781 154.232 192.089 148.203 192.335V149.588H191.931V149.578ZM194.112 159.668C194.842 162.264 195.819 164.84 197.101 167.377C200.426 173.966 204.935 179.836 210.135 184.35C214.545 188.185 219.251 190.889 224.155 192.433H194.112V159.668ZM198.571 166.63C195.828 161.182 194.497 155.518 194.112 149.952V148.457H236.922V192.256C234.406 192.404 231.861 192.325 229.542 191.981C215.078 189.867 204.057 177.496 198.571 166.63ZM191.961 140.699C189.307 132.92 182.844 124.975 174.626 121.494H191.961V140.699ZM191.063 143.521C191.398 144.917 191.635 146.402 191.793 147.926H166.022V121.504H168.489C179.697 122.979 188.744 133.795 191.063 143.521ZM167.107 189.267C173.678 185.953 179.549 181.459 184.058 176.277C187.768 172.019 190.412 167.495 191.971 162.775V192.502H158.435C161.345 191.755 164.256 190.702 167.107 189.267ZM245.624 160.346V159.245H248.387V160.346H245.624ZM248.377 163.886V164.643H247.588C247.913 164.427 248.17 164.171 248.377 163.886ZM247.321 162.008C247.321 162.598 247.094 163.011 246.621 163.296C246.344 163.463 245.999 163.572 245.624 163.631V162.008H247.321ZM239.369 157.583C239.329 156.668 239.448 155.734 239.754 154.82C241.046 150.955 245.486 149.549 248.012 149.057C248.13 149.038 248.268 149.018 248.387 149.008V157.583H239.369ZM243.967 159.235V163.621C243.473 163.542 243.019 163.404 242.684 163.218C241.165 162.392 240.109 160.926 239.635 159.235H243.967ZM238.58 153.335V148.448H244.203C241.53 149.549 239.596 151.221 238.58 153.335ZM241.816 164.634H238.58V161.182C239.28 162.618 240.385 163.827 241.816 164.634ZM265.091 166.295V168.774C263.611 179.994 252.758 189.06 243 191.381C241.599 191.715 240.109 191.961 238.58 192.118V166.295H265.091ZM259.23 152.548C262.279 155.036 264.518 159.746 265.091 164.358V164.643H250.035V148.959C253.162 149.185 257.089 150.798 259.23 152.548ZM255.155 148.448H265.091V158.035C263.926 155.302 262.269 152.892 260.266 151.26C258.964 150.188 257.128 149.185 255.155 148.448ZM265.091 174.91V192.433H245.358C253.31 189.886 261.529 183.317 265.091 174.91ZM265.091 146.786H194.112V142.606C194.95 130.049 199.736 118.858 202.607 113.155C212.108 94.294 230.657 80.2616 252.205 75.5906C255.441 74.8924 258.737 74.4106 262.042 74.155H265.081V146.786H265.091ZM201.137 112.407C199.065 116.518 196.026 123.421 194.112 131.652V74.155H251.041C229.364 79.1111 210.746 93.35 201.137 112.407ZM191.961 3.40238V119.852H168.548C168.479 119.842 168.42 119.832 168.351 119.822C166.93 119.655 165.46 119.675 163.98 119.852H74.0474V112.24C75.1426 94.9529 80.2139 77.3803 88.0182 64.2623C108.215 30.2874 135.446 15.5567 154.725 9.17468C174.813 2.52718 190.629 3.31387 191.961 3.40238ZM146.556 121.504V192.374C132.378 192.492 119.295 186.956 112.99 183.78C94.165 174.31 80.1547 155.823 75.4978 134.346C74.7973 131.121 74.3237 127.836 74.0671 124.542V121.513H146.556V121.504ZM112.23 185.235C116.532 187.398 123.893 190.624 132.634 192.502H74.0573V135.497C78.9905 157.111 93.208 175.667 112.23 185.235ZM140.902 226.644V227.745H138.149V226.644H140.902ZM138.149 223.114V222.357H138.929C138.623 222.573 138.367 222.819 138.149 223.114ZM139.215 224.982C139.215 224.392 139.442 223.979 139.916 223.694C140.192 223.527 140.537 223.419 140.912 223.36V224.982H139.215ZM147.128 229.417C147.167 230.332 147.049 231.266 146.743 232.18C145.451 236.045 141.04 237.451 138.524 237.943C138.406 237.962 138.278 237.982 138.149 237.992V229.417H147.128ZM142.55 227.755V223.37C143.033 223.448 143.487 223.586 143.833 223.773C145.342 224.599 146.398 226.064 146.871 227.755H142.55ZM147.917 233.655V238.543H142.313C144.977 237.451 146.901 235.779 147.917 233.655ZM144.691 222.357H147.917V225.808C147.217 224.373 146.122 223.163 144.691 222.357ZM121.515 220.695V218.217C122.995 206.997 133.798 197.93 143.507 195.609C144.898 195.275 146.388 195.029 147.907 194.872V220.695H121.515ZM127.356 234.452C124.317 231.964 122.097 227.254 121.525 222.642V222.357H136.512V238.031C133.394 237.815 129.487 236.202 127.356 234.452ZM131.411 238.543H121.515V228.955C122.669 231.689 124.327 234.098 126.32 235.73C127.622 236.802 129.447 237.815 131.411 238.543ZM121.515 212.08V194.557H141.159C133.246 197.114 125.057 203.673 121.515 212.08ZM121.515 240.205H192.237V243.4C191.596 256.351 186.653 267.984 183.722 273.835C174.26 292.696 155.8 306.729 134.341 311.4C131.115 312.098 127.839 312.58 124.544 312.835H121.515V240.205ZM185.193 274.583C187.274 270.433 190.343 263.431 192.247 255.102V312.835H135.505C157.093 307.889 175.622 293.64 185.193 274.583ZM223.109 244.433C223.188 243.941 223.326 243.489 223.514 243.155C224.342 241.64 225.812 240.588 227.519 240.116V244.433H223.109ZM227.519 246.085V248.838H226.404V246.085H227.519ZM224.737 246.085V247.776C224.145 247.776 223.731 247.55 223.445 247.078C223.277 246.803 223.168 246.459 223.109 246.085H224.737ZM222.093 242.299V239.074H225.566C224.125 239.772 222.902 240.863 222.093 242.299ZM222.853 248.838H222.093V248.052C222.3 248.366 222.557 248.632 222.853 248.838ZM237.85 250.49C237.633 253.608 236.005 257.512 234.248 259.655C231.742 262.694 227.016 264.926 222.379 265.496H222.093V250.49H237.85ZM229.187 248.838V239.851C230.104 239.811 231.052 239.929 231.969 240.234C235.856 241.522 237.267 245.947 237.761 248.465C237.78 248.583 237.8 248.72 237.81 248.838H229.187ZM235.541 260.688C236.616 259.38 237.632 257.551 238.363 255.594V265.496H228.723C231.476 264.336 233.903 262.674 235.541 260.688ZM233.449 239.064H238.363V244.669C237.267 242.014 235.58 240.087 233.449 239.064ZM194.348 237.412V232.387C194.408 231.59 194.487 230.804 194.595 230.046C196.716 215.63 209.148 204.656 220.08 199.189C226.049 196.209 232.285 194.901 238.363 194.655V237.402H194.348V237.412ZM220.425 239.064V265.487H217.939C206.662 264.012 197.545 253.195 195.207 243.469C194.871 242.073 194.625 240.588 194.467 239.064H220.425ZM219.33 197.733C212.71 201.047 206.8 205.541 202.261 210.724C198.571 214.932 195.927 219.397 194.348 224.048V194.488H228.082C225.132 195.236 222.211 196.298 219.33 197.733ZM211.753 265.496H194.348V246.459C197.062 254.188 203.534 262.045 211.753 265.496ZM194.348 383.598V267.139H217.88C217.949 267.149 218.018 267.158 218.077 267.168C219.508 267.335 220.988 267.316 222.478 267.139H313.061V274.75C311.956 292.037 306.845 309.61 298.992 322.728C278.647 356.703 251.219 371.434 231.792 377.815C211.822 384.384 196.036 383.696 194.348 383.598ZM240.04 265.496V194.626C254.326 194.508 267.498 200.044 273.852 203.221C292.815 212.69 306.934 231.177 311.621 252.654C312.321 255.879 312.805 259.164 313.061 262.458V265.487H240.04V265.496ZM274.612 201.755C270.28 199.592 262.861 196.367 254.06 194.488H313.071V251.494C308.089 229.879 293.772 211.333 274.612 201.755ZM382.758 166.945C381.919 163.05 380.814 158.861 379.363 154.466C375.229 141.997 369.132 130.403 361.219 119.979C351.343 106.96 338.605 95.7789 323.362 86.732C313.436 80.8417 301.034 76.4854 288.109 74.1647H342.463C363.567 100.332 377.893 132.144 382.758 166.945ZM345.334 74.1647H385.116V168.282C382.886 151.103 378.347 134.386 371.539 118.347C364.781 102.426 356.01 87.6367 345.334 74.1647ZM274.434 72.5029C272.451 72.375 270.478 72.2964 268.514 72.2767C266.334 72.2571 264.143 72.3259 261.963 72.5029H194.112V2.78286C253.261 3.00903 306.165 30.1399 341.111 72.5029H274.434ZM171.291 1.8684C152.969 3.93345 135.16 8.58463 118.101 15.7828C102.246 22.4696 87.4953 31.1429 74.0573 41.6747V1.87825H171.291V1.8684ZM161.858 5.36909C159.392 6.00827 156.846 6.74582 154.212 7.61117C141.77 11.7314 130.187 17.8086 119.788 25.6951C106.794 35.5385 95.6253 48.2337 86.5975 63.4265C80.7171 73.3191 76.366 85.6799 74.0573 98.5618V44.5363C98.9897 24.6331 129.023 10.8169 161.858 5.36909ZM72.3997 112.191C72.2714 114.168 72.2024 116.134 72.1728 118.091C72.1531 120.265 72.2221 122.448 72.3997 124.621V192.512H2.15087C2.4074 133.471 29.7472 80.6845 72.3997 45.8736V112.191ZM2.00291 221.255C4.35112 237.441 8.7614 253.214 15.1943 268.378C21.9922 284.406 30.8424 299.285 41.6165 312.835H2.00291V221.255ZM3.34473 214.726C4.22284 220.006 5.60415 226.054 7.73529 232.534C11.8496 245.003 17.9273 256.597 25.8007 267.021C35.6375 280.04 48.3257 291.221 63.4904 300.268C73.3667 306.158 85.7194 310.515 98.5852 312.835H44.4778C22.2488 285.35 7.48862 251.611 3.34473 214.726ZM212.888 385.122C232.107 383.214 250.794 378.465 268.643 370.942C284.656 364.196 299.525 355.415 313.071 344.745V385.122H212.888ZM227.016 380.992C228.743 380.51 230.519 379.979 232.324 379.389C244.855 375.269 256.527 369.191 267.005 361.305C280.088 351.461 291.345 338.766 300.442 323.573C306.362 313.681 310.752 301.32 313.081 288.438V341.884C288.593 361.521 259.181 375.278 227.016 380.992ZM314.729 274.799C314.857 272.822 314.936 270.856 314.955 268.899C314.975 266.726 314.906 264.543 314.729 262.369V194.479H384.573C384.228 253.224 357.085 305.765 314.729 340.527V274.799ZM385.116 72.5029H344.012C339.671 67.1436 335.034 62.0006 330.1 57.0838C312.341 39.3834 291.661 25.4885 268.633 15.7828C251.899 8.7223 234.426 4.12029 216.469 1.99624H385.116V72.5029ZM2.01279 1.8684H72.3997V42.9825C66.9239 47.3683 61.6651 52.0785 56.6332 57.0838C38.8737 74.7842 24.9324 95.3954 15.1943 118.347C8.77126 133.491 4.36099 149.234 2.01279 165.401V1.8684ZM2.00291 314.487H42.9485C47.2207 319.748 51.7888 324.803 56.6332 329.631C74.3927 347.331 95.0728 361.226 118.101 370.932C135.594 378.307 153.886 383.008 172.702 384.994H2.00291V314.487ZM314.729 385.122V343.418C320.066 339.12 325.197 334.528 330.1 329.641C347.86 311.94 361.801 291.329 371.539 268.378C378.347 252.349 382.876 235.642 385.116 218.482V385.122H314.729Z" fill="white"/>
</svg>
